<svg width="32" height="33" viewBox="0 0 32 33" fill="none" xmlns="http://www.w3.org/2000/svg">
<path fill-rule="evenodd" clip-rule="evenodd" d="M9.40355 0.099C11.1102 0.01833 11.6542 0 16 0C20.3466 0 20.8897 0.019245 22.5955 0.099C24.2995 0.178755 25.4631 0.45834 26.4809 0.86625C27.5484 1.28071 28.5153 1.93011 29.3146 2.76925C30.1284 3.5934 30.7583 4.59069 31.16 5.69159C31.5555 6.74117 31.8257 7.94109 31.904 9.69741C31.9823 11.4574 32 12.0184 32 16.5C32 20.9816 31.9814 21.5426 31.904 23.3027C31.8266 25.0589 31.5555 26.2589 31.16 27.3084C30.7511 28.3929 30.2035 29.314 29.3146 30.2307C28.5155 31.0699 27.5484 31.7194 26.4809 32.1338C25.4631 32.5416 24.2995 32.8203 22.5965 32.901C20.8897 32.9817 20.3457 33 16 33C11.6542 33 11.1102 32.9808 9.40355 32.901C7.70045 32.8212 6.53689 32.5416 5.51911 32.1338C4.46755 31.7121 3.57423 31.1473 2.68534 30.2307C1.87148 29.4066 1.24172 28.4093 0.84 27.3084C0.444451 26.2589 0.174225 25.0589 0.096 23.3027C0.0177745 21.5426 0 20.9825 0 16.5C0 12.0175 0.0186618 11.4574 0.096 9.69834C0.173338 7.94109 0.444451 6.74117 0.84 5.69159C1.24191 4.59077 1.87162 3.59352 2.68534 2.76925C3.48449 1.92996 4.45156 1.28052 5.51911 0.86625C6.53689 0.45834 7.70045 0.17967 9.40355 0.099ZM22.4657 3.069C20.7786 2.99016 20.272 2.97274 16 2.97274C11.728 2.97274 11.2213 2.99016 9.53423 3.069C7.97423 3.14233 7.12711 3.41091 6.56355 3.63734C5.81689 3.93617 5.28355 4.29366 4.72355 4.87116C4.16445 5.44866 3.81689 5.99867 3.52711 6.76866C3.30755 7.34984 3.04711 8.22342 2.976 9.83217C2.89955 11.572 2.88266 12.0945 2.88266 16.5C2.88266 20.9055 2.89955 21.4279 2.976 23.1678C3.04711 24.7766 3.30755 25.6502 3.52711 26.2314C3.78343 26.9481 4.19228 27.5964 4.72355 28.1289C5.23977 28.6767 5.86852 29.0984 6.56355 29.3626C7.12711 29.5891 7.97423 29.8577 9.53423 29.931C11.2213 30.0099 11.7271 30.0273 16 30.0273C20.2729 30.0273 20.7786 30.0099 22.4657 29.931C24.0257 29.8577 24.8729 29.5891 25.4365 29.3626C26.1831 29.0639 26.7165 28.7064 27.2765 28.1289C27.8077 27.5965 28.2166 26.9481 28.4729 26.2314C28.6925 25.6502 28.9529 24.7766 29.024 23.1678C29.1005 21.4279 29.1174 20.9055 29.1174 16.5C29.1174 12.0945 29.1005 11.572 29.024 9.83217C28.9529 8.22342 28.6925 7.34984 28.4729 6.76866C28.1831 5.99867 27.8365 5.44866 27.2765 4.87116C26.7165 4.29459 26.1831 3.93617 25.4365 3.63734C24.8729 3.41091 24.0257 3.14233 22.4657 3.069ZM13.9571 21.5863C14.6048 21.8631 15.2989 22.0054 16 22.0054C17.416 22.0054 18.7738 21.4254 19.775 20.393C20.7763 19.3605 21.3388 17.9601 21.3388 16.5C21.3388 15.0399 20.7763 13.6395 19.775 12.607C18.7738 11.5745 17.416 10.9945 16 10.9945C15.2989 10.9945 14.6048 11.1369 13.9571 11.4136C13.3092 11.6902 12.7208 12.0958 12.225 12.607C11.7293 13.1183 11.336 13.7252 11.0678 14.3931C10.7995 15.061 10.6614 15.777 10.6614 16.5C10.6614 17.223 10.7995 17.9389 11.0678 18.6069C11.336 19.2749 11.7293 19.8818 12.225 20.393C12.7208 20.9042 13.3092 21.3097 13.9571 21.5863ZM10.1848 10.503C11.7271 8.91252 13.8189 8.01899 16 8.01899C18.1812 8.01899 20.273 8.91252 21.8153 10.503C23.3575 12.0935 24.224 14.2507 24.224 16.5C24.224 18.7493 23.3575 20.9064 21.8153 22.497C20.273 24.0875 18.1812 24.981 16 24.981C13.8189 24.981 11.7271 24.0875 10.1848 22.497C8.6425 20.9064 7.77604 18.7493 7.77604 16.5C7.77604 14.2507 8.6425 12.0935 10.1848 10.503ZM26.0476 9.28257C26.4121 8.90659 26.6169 8.39668 26.6169 7.865C26.6169 7.33329 26.4121 6.82338 26.0476 6.44742C25.6829 6.07146 25.1885 5.86024 24.6729 5.86024C24.1574 5.86024 23.6628 6.07146 23.2983 6.44742C22.9337 6.82338 22.7289 7.33329 22.7289 7.865C22.7289 8.39668 22.9337 8.90659 23.2983 9.28257C23.6628 9.65853 24.1574 9.86975 24.6729 9.86975C25.1885 9.86975 25.6829 9.65853 26.0476 9.28257Z" fill="#45230A"/>
</svg>
