<svg width="32" height="32" viewBox="0 0 32 32" fill="none" xmlns="http://www.w3.org/2000/svg">
<path d="M22.7831 18.7751C22.4106 18.5837 20.5546 17.6746 20.2094 17.5515C19.8642 17.4216 19.6113 17.3601 19.3618 17.7429C19.1088 18.1223 18.3911 18.9666 18.1655 19.2229C17.9467 19.4758 17.7245 19.5066 17.352 19.3186C15.1371 18.2112 13.6845 17.343 12.225 14.8376C11.8388 14.1711 12.6113 14.219 13.3325 12.78C13.4555 12.5271 13.394 12.3118 13.2983 12.1204C13.2026 11.929 12.4506 10.0764 12.1362 9.32104C11.832 8.58618 11.5175 8.68872 11.2885 8.67505C11.0698 8.66138 10.8203 8.66138 10.5673 8.66138C10.3144 8.66138 9.90765 8.75708 9.56244 9.12964C9.21722 9.50903 8.2431 10.4216 8.2431 12.2742C8.2431 14.1267 9.5932 15.9211 9.77777 16.1741C9.96918 16.427 12.4335 20.2278 16.2172 21.865C18.6098 22.8972 19.5463 22.9861 20.7426 22.8084C21.4706 22.699 22.9711 21.8992 23.2822 21.0139C23.5932 20.1321 23.5932 19.3767 23.5009 19.2195C23.4086 19.052 23.1557 18.9563 22.7831 18.7751Z" fill="#45230A"/>
<path d="M30.0191 9.83716C29.2466 8.00171 28.1392 6.35425 26.7276 4.93921C25.3159 3.52759 23.6685 2.41675 21.8296 1.64771C19.9497 0.858154 17.9536 0.458252 15.896 0.458252H15.8276C13.7564 0.468506 11.75 0.878662 9.86329 1.6853C8.04151 2.4646 6.40773 3.57202 5.00978 4.98364C3.61183 6.39526 2.51466 8.03589 1.75587 9.8645C0.969737 11.7581 0.573253 13.7712 0.583507 15.8425C0.593761 18.2146 1.16114 20.5696 2.22413 22.675V27.8704C2.22413 28.7385 2.92823 29.4426 3.7964 29.4426H8.99513C11.1006 30.5056 13.4556 31.073 15.8276 31.0833H15.8994C17.9468 31.0833 19.9326 30.6868 21.8023 29.9109C23.6309 29.1487 25.2749 28.0549 26.6831 26.657C28.0947 25.259 29.2056 23.6252 29.9815 21.8035C30.7881 19.9167 31.1983 17.9104 31.2085 15.8391C31.2188 13.7576 30.8154 11.7375 30.0191 9.83716ZM24.8545 24.8079C22.4585 27.1799 19.2798 28.4856 15.896 28.4856H15.8379C13.7769 28.4753 11.7295 27.9626 9.9214 26.9988L9.63429 26.845H4.82179V22.0325L4.66798 21.7454C3.70411 19.9373 3.19142 17.8899 3.18116 15.8289C3.16749 12.4211 4.46974 9.22192 6.8589 6.81226C9.24464 4.40259 12.4336 3.06958 15.8413 3.05591H15.8994C17.6084 3.05591 19.2661 3.38745 20.8281 4.0437C22.3525 4.68286 23.7197 5.60229 24.8955 6.77808C26.0679 7.95044 26.9907 9.32104 27.6299 10.8455C28.293 12.4246 28.6245 14.0994 28.6177 15.8289C28.5972 19.2332 27.2608 22.4221 24.8545 24.8079Z" fill="#45230A"/>
</svg>
