<svg width="111" height="103" viewBox="0 0 111 103" fill="none" xmlns="http://www.w3.org/2000/svg">
<g clip-path="url(#clip0_119_411)">
<path d="M26.56 98.9501C27.64 98.9401 29.22 98.5001 29.28 97.0801C29.32 96.2401 28.72 95.5301 28.01 95.2101C26.83 94.6601 25.31 94.6201 24.06 94.0801C23.3 93.7601 22.39 93.1701 22.39 92.1701C22.39 91.1701 23.22 90.4701 23.97 90.0901C24.66 89.7501 25.46 89.5801 26.26 89.5801C27.71 89.5801 29.14 90.0401 30.16 90.8701L29.64 92.2301C28.7 90.8701 27.88 90.0801 26.67 89.8801C25.73 89.7301 24.7 89.9101 23.98 90.6301C23.28 91.3601 23.45 92.2201 24.43 92.7401C25.95 93.5401 28.34 93.3601 29.54 94.6301C30.33 95.4701 30.36 97.0201 29.68 97.9501C28.99 98.8801 27.67 99.2001 26.5 99.2001C24.95 99.2001 23.52 98.7201 22.39 97.7201V95.3101H22.52C23.04 97.4801 24.7 98.9501 26.57 98.9401L26.56 98.9501Z" fill="#231104"/>
<path d="M40.74 89.7101C40.14 89.6801 39.84 90.0901 39.84 91.5801V97.2201C39.84 98.7101 40.14 99.1101 40.74 99.0801V99.2101H37.6V99.0801C38.2 99.1101 38.5 98.7101 38.5 97.2201V91.5801C38.5 90.0901 38.2 89.6801 37.6 89.7101V89.5801H40.74V89.7101Z" fill="#231104"/>
<path d="M48.18 99.0801C48.78 99.1101 49.08 98.7101 49.08 97.2201V91.5801C49.08 90.0901 48.78 89.6801 48.18 89.7101V89.5801H51.84C54.11 89.5801 56.45 90.2001 56.45 94.3301C56.45 98.4601 54.13 99.2001 51.84 99.2001H48.18V99.0701V99.0801ZM50.42 98.9501H52.23C54.17 98.9501 55.11 96.9901 55.11 94.3401C55.11 91.6901 54.13 89.8401 52.23 89.8401H50.42V98.9601V98.9501Z" fill="#231104"/>
<path d="M67.06 99.0801V99.2101H63.92V99.0801C64.52 99.1101 64.82 98.7101 64.82 97.2201V91.5801C64.82 90.0901 64.52 89.6801 63.92 89.7101V89.5801H69.17C70.31 89.5801 71.69 90.0001 71.69 91.3801C71.69 92.7601 70.3 93.2801 68.97 93.7401C69.77 93.8201 70.22 94.2301 70.43 94.8501C70.7 95.6401 71.27 97.8201 71.78 98.3701C71.98 98.6001 72.3 98.7801 72.58 98.5401L72.68 98.6201C72.48 99.0301 72.08 99.2001 71.67 99.2001C70.98 99.2001 70.57 98.8301 70.31 98.3301C69.8 97.4001 69.54 96.0401 69.18 95.0801C68.88 94.2401 68.43 93.8701 67.58 94.2801C67.05 94.5301 66.45 95.0301 66.16 95.3601V97.2201C66.16 98.7101 66.46 99.1101 67.06 99.0801ZM66.16 95.0001C66.53 94.6301 66.98 94.3201 67.47 94.0201C68.38 93.4101 70.34 92.6001 70.34 91.3301C70.35 90.0801 69.1 89.8401 68.12 89.8401H66.16V95.0001Z" fill="#231104"/>
<path d="M88.28 98.4198C88.42 98.8598 88.66 99.1098 89.17 99.0998V99.2098H86.33V99.0998C86.81 99.1098 87.03 98.8998 86.88 98.4198L85.92 95.6998C85.43 96.7398 84.63 96.9498 83.5 96.5898C82.95 96.3898 81.81 95.9099 81.5 96.7999L81.2 97.5898C81.13 97.8298 81.12 98.0398 81.2 98.2798C81.23 98.3798 81.27 98.4898 81.3 98.5898C81.44 98.9998 81.71 99.1098 82.16 99.0998V99.2098H79.78V99.0998C80.23 99.1098 80.5 98.8699 80.64 98.4799L83.76 89.5898H85.18L88.28 98.4198ZM83.9 89.9498L81.82 95.8398C82.31 95.2098 83.02 95.1098 83.94 95.4198C84.59 95.6298 85.3 95.9798 85.83 95.4198L83.9 89.9498Z" fill="#231104"/>
<path d="M100.45 86.8709C70.5 87.5609 40.16 87.5709 10.2 86.8709C40.15 86.1709 70.49 86.1809 100.45 86.8709Z" fill="#231104"/>
<path d="M19.68 102.17C43.34 101.48 67.31 101.47 90.96 102.17C67.3 102.87 43.33 102.86 19.68 102.17Z" fill="#231104"/>
<path d="M58.15 29.6906C58.34 30.3706 58.7 31.0006 58.99 31.6606C59.1 31.9106 59.22 32.1606 59.33 32.4106C59.48 30.8606 59.95 29.4106 60.42 27.9506C60.33 29.1606 60.24 30.3606 60.15 31.6606C60.42 31.5506 60.63 31.5006 60.8 31.3906C61.63 30.8706 62.36 30.2206 62.88 29.3806C63.1 29.0306 63.29 28.6106 63.32 28.2106C63.38 27.3406 63.33 26.4606 63.3 25.5906C63.25 24.3106 63.19 23.0406 63.7 21.8106C63.96 21.1906 64.19 20.5606 64.43 19.9406L64.37 19.8906C64.03 20.0906 63.71 20.2906 63.36 20.4806C61.54 21.4806 60.08 22.8506 59 24.6306C58.05 26.2006 57.63 27.8906 58.14 29.6906H58.15Z" fill="#231104"/>
<path d="M73.25 22.3899C73.31 20.7499 72.72 19.2899 71.95 17.8899C71.86 17.7299 71.71 17.5999 71.56 17.4199C71.52 17.5699 71.49 17.6699 71.47 17.7699C71.26 18.9199 70.94 20.0099 70.25 20.9899C70.01 21.3299 69.86 21.7699 69.77 22.1799C69.45 23.6099 70.25 24.7699 70.73 26.0199C71.25 23.9299 71.85 21.8599 71.87 19.6799C71.99 21.8499 71.36 23.9499 71.18 26.1499C72.49 25.1799 73.18 23.9399 73.24 22.3899H73.25Z" fill="#231104"/>
<path d="M31.77 17.0708C32.28 18.1008 32.87 19.0908 33.04 20.2608C33.17 21.1708 33.3 22.0808 33.38 22.9908C33.51 24.5408 34.04 25.8608 35.38 26.7708C35.81 27.0708 36.23 27.4008 36.69 27.6408C37.12 27.8708 37.18 27.8008 37.21 27.3208C37.25 26.5608 37.02 25.8608 36.79 25.1608C36.62 24.6308 36.45 24.1008 36.28 23.5808C36.31 23.5808 36.33 23.5708 36.36 23.5608C36.97 25.0908 37.86 26.5208 37.84 28.2508C37.87 28.2508 37.89 28.2708 37.92 28.2808C38.02 28.1108 38.16 27.9508 38.22 27.7708C39.28 24.6508 39.3 22.0608 36.54 19.4608C35.11 18.1108 33.43 17.1708 31.52 16.5508C31.61 16.7508 31.69 16.9108 31.77 17.0808V17.0708Z" fill="#231104"/>
<path d="M11.26 81.9999C12.14 82.5799 13.12 82.9399 14.17 82.6899C14.98 82.4999 15.75 82.1199 16.53 81.8199C16.54 81.8199 16.54 81.7799 16.56 81.7299C15.97 81.4099 15.38 81.0499 14.76 80.7899C14.14 80.5299 13.48 80.3899 12.84 80.1899C12.86 80.1399 12.87 80.0899 12.89 80.0399C14.23 80.4499 15.58 80.8599 16.94 81.2699C16.42 79.8499 15.52 78.8199 14 78.4499C12.83 78.1599 11.65 78.1199 10.45 78.2999C9.23 78.4699 8.1 78.9099 6.87 79.2599C6.98 79.3299 7.03 79.3899 7.09 79.3999C7.78 79.5499 8.36 79.9099 8.92 80.3099C9.7 80.8699 10.46 81.4599 11.26 81.9899V81.9999Z" fill="#231104"/>
<path d="M67.38 12.0215C66.25 12.6915 65.49 13.6615 65.17 14.9515C65.06 15.4015 64.95 15.8515 64.89 16.3115C64.85 16.5815 64.9 16.8515 64.92 17.1315C66.28 15.9015 67.61 14.7015 68.93 13.5115L69.06 13.6415C68.75 13.9115 68.44 14.1715 68.14 14.4615C67.47 15.0915 66.79 15.7115 66.16 16.3815C65.84 16.7215 65.61 17.1615 65.35 17.5515C65.38 17.5815 65.4 17.6015 65.43 17.6215C65.51 17.6215 65.6 17.6215 65.67 17.5915C66.37 17.3515 67.07 17.1215 67.76 16.8615C69.04 16.3715 69.93 15.4715 70.35 14.1715C70.72 13.0115 71.03 11.8315 71.36 10.6515C71.42 10.4215 71.48 10.1815 71.53 9.94148C71.58 9.72148 71.62 9.49148 71.67 9.27148C70.89 10.1515 69.91 10.7215 68.9 11.2215C68.39 11.4715 67.89 11.7415 67.4 12.0315L67.38 12.0215Z" fill="#231104"/>
<path d="M88.86 49.501C88.75 48.931 88.4 48.461 87.96 48.041C87.68 48.861 87.44 49.651 87.15 50.431C87.03 50.761 87.06 51.041 87.23 51.331C87.37 51.571 87.51 51.821 87.67 52.101C87.36 52.241 87.08 52.421 86.78 52.481C85.81 52.671 84.93 52.421 84.16 51.821C83.74 51.491 83.57 51.021 83.65 50.491C83.7 50.151 83.81 49.821 83.9 49.481C83.99 49.141 83.93 48.841 83.66 48.481C83.44 48.691 83.19 48.861 83.03 49.091C82.46 49.891 81.94 50.731 81.37 51.521C80.12 53.261 78.4 53.881 76.34 53.421C74.79 53.071 73.73 52.161 74.15 50.201C74.23 49.841 74.3 49.481 74.09 49.131C73.63 49.211 73.44 49.321 72.96 49.791C72.2 50.541 71.46 51.311 70.67 52.031C69.12 53.451 67.35 54.401 65.2 54.541C63.58 54.641 62.44 53.941 61.99 52.461C61.78 51.771 61.6 51.061 61.46 50.341C60.81 47.001 60.19 43.641 59.55 40.301C58.86 36.701 57.5 33.381 55.38 30.391C55.22 30.171 55.05 29.941 54.87 29.701C54.82 29.781 54.8 29.801 54.8 29.831C54.2 32.371 53.6 34.901 52.99 37.441C52.88 37.881 52.96 38.241 53.18 38.611C53.78 39.631 54.55 40.481 55.45 41.231C56.09 41.761 56.75 42.291 57.28 42.931C58.15 43.971 58.43 45.261 58.54 46.591C58.63 47.761 58.4 48.851 57.59 49.751C57.03 50.381 56.46 51.001 55.87 51.601C54.49 52.991 52.93 54.161 51.28 55.211C49.9 56.081 48.44 56.801 46.88 57.291C45.65 57.681 44.4 57.981 43.1 58.001C41.62 58.011 40.62 57.181 40.31 55.741C40.17 55.071 40.22 54.401 40.31 53.721C40.37 53.271 40.39 52.841 40.76 52.481C41.97 51.351 43.24 50.311 44.66 49.461C45.9 48.721 47.18 48.121 48.68 48.241C49.64 48.311 50.55 48.551 51.28 49.191C51.63 49.501 51.9 49.901 52.24 50.291C52.41 49.651 52.63 49.001 52.74 48.341C52.88 47.481 52.81 46.621 52.26 45.891C51.68 45.111 50.84 44.831 49.91 44.741C48.1 44.571 46.44 45.071 44.87 45.921C42.26 47.331 40.13 49.301 38.15 51.461C36.56 53.201 34.96 54.931 33.32 56.631C32.39 57.601 31.26 58.311 29.96 58.721C28.85 59.071 27.73 58.741 27.13 57.801C26.62 57.001 26.44 56.091 26.59 55.161C26.75 54.131 26.98 53.111 27.2 52.091C27.36 51.361 27.47 50.601 27.75 49.921C28.31 48.571 29.25 47.441 30.08 46.201C30.12 46.311 30.15 46.381 30.16 46.451C30.28 46.991 30.39 47.541 30.52 48.081C30.57 48.291 30.53 48.461 30.41 48.641C29.66 49.711 28.91 50.781 28.17 51.861C28.12 51.931 28.08 52.071 28.11 52.141C28.3 52.551 28.52 52.951 28.73 53.361C28.67 53.041 28.56 52.721 28.4 52.451C28.23 52.161 28.31 51.961 28.5 51.721C29.32 50.711 30.12 49.701 30.92 48.671C31 48.571 31.06 48.401 31.04 48.281C30.91 47.391 30.77 46.511 30.63 45.621C30.62 45.531 30.63 45.411 30.69 45.331C31.24 44.511 31.8 43.691 32.37 42.841C32.79 43.611 33.2 44.361 33.6 45.131C33.66 45.241 33.66 45.431 33.6 45.551C33.12 46.711 32.62 47.851 32.13 49.011C32.09 49.111 32.06 49.251 32.1 49.331C32.26 49.631 32.46 49.911 32.65 50.201C32.6 49.961 32.51 49.741 32.38 49.541C32.24 49.321 32.24 49.151 32.37 48.911C32.97 47.801 33.54 46.671 34.13 45.551C34.22 45.381 34.21 45.251 34.13 45.081C33.71 44.181 33.31 43.281 32.91 42.371C32.86 42.261 32.82 42.101 32.86 42.011C33.11 41.531 33.39 41.051 33.68 40.561C34.34 41.021 35.08 41.221 35.85 41.321C35.95 41.331 36.06 41.421 36.13 41.501C36.71 42.111 37.28 42.741 37.86 43.361C37.99 43.501 38.02 43.611 37.93 43.791C37.49 44.651 37.07 45.531 36.64 46.401C36.6 46.491 36.53 46.641 36.56 46.691C36.78 47.001 37.04 47.301 37.28 47.591C37.3 47.571 37.32 47.561 37.34 47.541C37.22 47.361 37.11 47.161 36.97 47.011C36.72 46.751 36.77 46.531 36.95 46.241C37.52 45.341 38.05 44.421 38.6 43.511C38.04 42.801 37.49 42.101 36.93 41.391C37.43 41.151 37.84 41.211 38.25 41.511C38.51 41.701 38.8 41.871 39.09 42.001C39.37 42.121 39.38 42.311 39.33 42.561C39.17 43.501 39.01 44.451 38.85 45.401C38.84 45.471 38.85 45.591 38.89 45.631C39.21 45.861 39.54 46.071 39.87 46.291C39.88 46.271 39.9 46.251 39.91 46.231C39.68 46.041 39.46 45.841 39.21 45.671C39.06 45.561 39.02 45.471 39.07 45.281C39.33 44.271 39.57 43.261 39.82 42.251C39.87 42.051 39.85 41.931 39.66 41.811C39.2 41.511 38.76 41.191 38.31 40.881C38.57 40.661 38.8 40.461 39.02 40.271C40.47 41.511 42.17 41.811 43.91 41.691C44.12 40.821 44.27 40.031 44.51 39.271C44.79 38.381 45.01 37.481 44.71 36.571C44.51 35.971 44.19 35.411 43.91 34.791C43.92 34.781 43.94 34.761 43.96 34.751C45.19 33.821 46.62 33.451 48.11 33.281C48.2 33.281 48.32 33.351 48.38 33.421C48.6 33.651 48.9 33.751 49.18 33.641C49.44 33.541 49.63 33.231 49.6 32.961C49.57 32.661 49.35 32.411 49.04 32.351C48.72 32.301 48.5 32.441 48.32 32.701C48.26 32.791 48.15 32.871 48.05 32.891C47.32 33.061 46.58 33.191 45.86 33.391C45.01 33.621 44.24 34.041 43.56 34.601C43.03 34.201 43.02 34.201 43.19 33.721C43.69 32.321 44.62 31.251 45.7 30.271C45.76 30.221 45.89 30.221 45.98 30.251C46.3 30.331 46.58 30.251 46.76 29.991C46.93 29.751 46.92 29.441 46.73 29.191C46.56 28.971 46.24 28.881 45.96 28.981C45.7 29.071 45.51 29.351 45.55 29.661C45.58 29.871 45.49 29.981 45.36 30.121C44.89 30.611 44.41 31.091 43.98 31.611C43.39 32.321 42.97 33.141 42.73 34.041C41.52 33.551 40.42 33.661 39.38 34.431C39.32 34.471 39.18 34.451 39.11 34.401C38 33.631 36.77 33.141 35.43 32.951C35.33 32.941 35.21 32.871 35.15 32.791C34.5 31.921 33.84 31.031 33.49 30.001C33.1 28.831 32.8 27.621 32.47 26.421C32.2 25.431 31.9 24.451 31.22 23.641C30.4 22.661 28.82 22.131 27.77 23.841C27.73 23.911 27.68 23.981 27.64 24.061C26.93 25.401 26.92 26.791 27.3 28.221C27.41 28.631 27.56 29.031 27.69 29.441C27.24 28.811 26.82 28.171 26.39 27.531C25.91 26.821 25.39 26.151 24.66 25.701C24.31 25.481 23.9 25.291 23.5 25.241C22.1 25.041 21.51 25.901 21.29 26.861C20.96 28.331 21.33 29.671 22.1 30.921C23.11 32.531 24.53 33.701 26.16 34.631C26.95 35.081 27.79 35.451 28.64 35.861C27.3 36.461 26.25 37.371 25.47 38.601C24.8 39.671 24.42 40.841 24.2 42.071C23.83 44.121 23.93 46.111 24.82 48.011C25.24 48.911 25.76 49.741 26.6 50.311C26.8 50.451 26.82 50.551 26.75 50.771C26.3 52.151 25.78 53.521 25.63 54.981C25.45 56.661 25.72 58.251 26.71 59.661C27.62 60.961 28.85 61.651 30.47 61.531C31.42 61.461 32.25 61.061 32.95 60.441C33.68 59.801 34.38 59.121 35.05 58.421C36.33 57.091 37.58 55.721 38.85 54.381C39.08 54.131 39.33 53.901 39.52 53.701C39.47 54.961 39.36 56.221 39.39 57.491C39.42 58.921 40 60.111 41.22 60.931C42.24 61.611 43.38 61.571 44.5 61.391C46.18 61.111 47.76 60.521 49.27 59.741C52.17 58.241 54.64 56.191 56.85 53.801C57.7 52.881 58.4 51.851 58.88 50.681C59.03 50.311 59.15 49.941 59.31 49.511C59.34 49.611 59.36 49.661 59.37 49.701C59.5 50.331 59.6 50.961 59.76 51.591C60.08 52.891 60.34 54.211 60.78 55.471C61.5 57.551 63.26 58.411 65.4 58.141C67.4 57.881 69.01 56.931 70.34 55.431C71.04 54.641 71.79 53.891 72.52 53.131C72.59 53.061 72.71 53.031 72.81 52.981C72.85 53.081 72.93 53.181 72.94 53.281C73 53.691 73.02 54.101 73.08 54.511C73.24 55.521 73.69 56.391 74.68 56.791C76.43 57.511 78.15 57.481 79.74 56.331C80.19 56.001 80.58 55.591 80.98 55.201C81.35 54.831 81.69 54.431 82.05 54.041C82.24 54.321 82.41 54.581 82.59 54.821C83.81 56.391 85.76 56.611 87.19 55.241C88.81 53.681 89.24 51.701 88.8 49.531L88.86 49.501ZM42.43 36.961C42.77 36.531 43.29 36.501 43.6 36.951C43.81 37.261 43.91 37.641 44.06 37.971C43.94 38.321 43.88 38.611 43.74 38.861C43.48 39.311 43.01 39.361 42.62 39.021C42.1 38.571 42 37.501 42.43 36.961ZM27.64 27.231C27.45 26.141 27.62 25.091 28.19 24.111C28.82 23.031 29.85 22.891 30.73 23.771C31.39 24.431 31.68 25.281 31.92 26.151C32.13 26.901 32.31 27.661 32.49 28.421C32.82 29.841 33.42 31.131 34.25 32.321C34.32 32.421 34.38 32.511 34.44 32.611C34.44 32.611 34.44 32.631 34.44 32.681C33.69 32.801 33.07 33.121 32.64 33.711C29.84 32.411 28.15 30.261 27.63 27.231H27.64ZM23.36 31.671C22.53 30.741 21.91 29.701 21.74 28.431C21.66 27.841 21.69 27.251 21.88 26.671C22.17 25.761 22.85 25.471 23.75 25.731C24.54 25.961 25.09 26.531 25.56 27.161C26.14 27.941 26.68 28.751 27.19 29.571C28.4 31.511 30.15 32.851 32.06 34.021C32.2 34.111 32.35 34.191 32.49 34.281C32.51 34.291 32.52 34.311 32.53 34.341C32.45 34.601 32.36 34.871 32.31 35.041C31.38 35.181 30.5 35.321 29.63 35.451C29.53 35.461 29.42 35.451 29.32 35.421C27.04 34.641 24.98 33.481 23.36 31.661V31.671Z" fill="#231104"/>
<path d="M51.22 18.7905C51.28 18.9705 51.42 19.1305 51.52 19.3005C51.55 19.3005 51.57 19.2805 51.6 19.2705C51.58 17.5405 52.47 16.1105 53.08 14.5805C53.11 14.5805 53.13 14.5905 53.16 14.6005C52.99 15.1305 52.81 15.6605 52.65 16.1805C52.43 16.8805 52.2 17.5905 52.23 18.3405C52.25 18.8205 52.31 18.8905 52.75 18.6605C53.21 18.4105 53.63 18.0805 54.06 17.7905C55.39 16.8805 55.93 15.5605 56.06 14.0105C56.14 13.1005 56.27 12.1905 56.4 11.2805C56.57 10.1205 57.16 9.12055 57.67 8.09055C57.75 7.92055 57.83 7.76055 57.93 7.56055C56.01 8.18055 54.34 9.12055 52.9 10.4705C50.14 13.0805 50.16 15.6605 51.22 18.7805V18.7905Z" fill="#231104"/>
<path d="M97.8 78.3014C96.6 78.1314 95.42 78.1614 94.25 78.4514C92.73 78.8314 91.83 79.8614 91.31 81.2714C92.67 80.8514 94.02 80.4514 95.36 80.0414C95.38 80.0914 95.39 80.1414 95.41 80.1914C94.77 80.3814 94.11 80.5314 93.49 80.7914C92.86 81.0514 92.28 81.4114 91.69 81.7314C91.71 81.7914 91.71 81.8214 91.72 81.8214C92.51 82.1214 93.27 82.4914 94.08 82.6914C95.13 82.9414 96.11 82.5814 96.99 82.0014C97.79 81.4714 98.55 80.8814 99.33 80.3214C99.89 79.9214 100.47 79.5614 101.16 79.4114C101.22 79.4014 101.27 79.3414 101.38 79.2714C100.16 78.9114 99.02 78.4814 97.8 78.3114V78.3014Z" fill="#231104"/>
<path d="M22.57 46.9109C22.51 46.6809 22.39 46.6409 22.18 46.6909C21.86 46.7709 21.52 46.8509 21.19 46.9109C20.54 47.0209 19.87 47.101 19.23 47.241C18.93 47.311 18.65 47.491 18.31 47.651C18.44 47.741 18.47 47.7809 18.52 47.8009C19.56 48.2209 20.43 48.901 21.32 49.581C21.96 50.071 22.65 50.5209 23.34 50.9309C23.67 51.1309 24.08 51.2009 24.42 51.3209C24.62 51.0609 24.53 50.9109 24.42 50.7309C24.06 50.1809 23.7 49.641 23.39 49.061C23.21 48.721 23.06 48.4309 22.64 48.3809C22.77 48.4009 22.9 48.4209 23.06 48.4409C22.89 47.9109 22.73 47.4209 22.59 46.9209L22.57 46.9109Z" fill="#231104"/>
<path d="M42.56 27.2409C42.58 27.7209 42.64 27.7909 43.08 27.5609C43.54 27.3109 43.96 26.9809 44.39 26.6909C45.72 25.7809 46.26 24.4609 46.39 22.9109C46.47 22.0009 46.6 21.0909 46.73 20.1809C46.9 19.0209 47.49 18.0209 48 16.9909C48.08 16.8209 48.16 16.6609 48.26 16.4609C46.34 17.0809 44.67 18.0209 43.24 19.3709C40.48 21.9809 40.5 24.5609 41.56 27.6809C41.62 27.8609 41.76 28.0209 41.86 28.1909C41.89 28.1909 41.91 28.1709 41.94 28.1609C41.92 26.4309 42.81 25.0009 43.42 23.4709C43.45 23.4709 43.47 23.4809 43.5 23.4909C43.33 24.0209 43.15 24.5509 42.99 25.0709C42.77 25.7809 42.54 26.4809 42.57 27.2309L42.56 27.2409Z" fill="#231104"/>
<path d="M65.48 35.3003C66.81 34.6603 68.14 34.0303 69.46 33.3703C70.01 33.0903 70.58 32.8103 71.06 32.4203C71.34 32.1903 71.63 31.7103 71.57 31.4303C71.51 31.1703 70.97 30.8403 70.65 30.8503C68.86 30.9103 67.07 31.0603 65.15 31.1803C65.25 30.9003 65.28 30.3803 65.56 30.1003C66.07 29.5903 66.65 29.0203 67.31 28.8303C69.3 28.2603 71.34 28.2003 73.36 28.7403C74.3 28.9903 74.58 29.5503 74.12 30.3203C72.16 33.5403 69.24 35.1803 65.49 35.2803" fill="#231104"/>
<path d="M82.84 57.4199C82.77 58.0999 82.38 58.3599 81.86 58.5599C79.35 59.5499 76.86 60.5799 74.34 61.5999C74.34 61.1899 74.44 60.8799 74.89 60.6999C77.53 59.6299 80.16 58.5299 82.84 57.4199Z" fill="#231104"/>
<path d="M47.56 49.6601C47.46 49.9101 47.37 50.1601 47.26 50.4101C46.96 51.1101 46.97 51.2701 47.59 51.6401C48.29 52.0601 48.5 52.6501 48.39 53.4201C48.27 54.2601 47.88 54.8701 47.06 55.1501C46.47 55.3501 45.97 55.1401 45.98 54.5401C45.99 53.6401 46.09 52.7101 46.33 51.8401C46.55 51.0501 47.01 50.3301 47.37 49.5801C47.43 49.6101 47.49 49.6401 47.56 49.6601ZM46.42 53.2101C46.28 53.4001 46.29 53.6601 46.46 53.8301C46.56 53.9301 46.63 53.9901 46.66 53.9801C46.86 53.8901 47.05 53.7701 47.24 53.6601C47.51 53.4901 47.54 53.1001 47.29 52.8901C47.08 52.7201 46.77 52.7501 46.61 52.9701C46.55 53.0501 46.49 53.1301 46.42 53.2201" fill="#231104"/>
<path d="M84.72 60.4498C84.4 60.6898 84.01 60.2398 84.3 59.9498C85.03 59.2298 85.73 58.5498 86.45 57.8798C87.14 57.2498 87.91 56.6698 88.72 56.2298C89.14 55.9998 89.79 55.9798 90.27 56.0998C91.35 56.3798 92.2 56.2998 92.73 55.1898C92.78 55.0898 92.9 55.0398 92.9 55.0398C93.14 55.2498 93.37 55.4498 93.61 55.6598C93.79 55.8198 94.08 55.7298 94.14 55.4898C94.16 55.4098 94.18 55.3298 94.2 55.2598C94.28 54.9198 94.77 54.9298 94.84 55.2698C94.95 55.8498 94.83 56.3898 94.46 56.7198C94.18 56.9698 93.63 56.9098 93.2 56.9798C92.94 57.0198 92.57 56.9498 92.43 57.0998C91.81 57.7498 91.06 57.8098 90.3 57.5798C89.16 57.2298 88.2 57.5298 87.33 58.2498C86.47 58.9698 85.65 59.7498 84.75 60.4298C84.75 60.4298 84.74 60.4398 84.73 60.4498" fill="#231104"/>
<path d="M66.54 38.4809C66.22 39.5009 65.81 40.5009 65.6 41.5309C65.21 43.3909 64.89 45.2809 64.62 47.1609C64.51 47.9409 64.59 48.7909 65.53 49.1209C66.55 49.4809 67.04 48.7309 67.56 48.0809C67.77 47.8109 67.97 47.5409 68.27 47.3109C68.21 48.9209 67.87 50.4509 66.81 51.6909C65.78 52.9009 63.93 52.4909 63.45 50.7809C63.1 49.5009 63.2 48.0309 63.35 46.6709C63.68 43.6909 64.93 41.0009 66.54 38.4609" fill="#231104"/>
<path d="M82.27 38.8508C81.33 38.1208 80.12 38.5108 79.65 39.8108C79.2 41.0508 78.9 42.3408 78.57 43.6208C78.52 43.8208 78.24 43.8308 78.17 43.6408C77.66 42.1808 77.18 40.7008 75.88 39.7108C74.73 38.8308 73.91 39.3208 73.39 40.5408C73.36 40.6108 73.34 40.6908 73.32 40.7608C73.28 40.8808 73.25 41.0108 73.25 41.1408C73.25 41.2508 73.25 41.2508 73.3 41.4408L73.42 41.6708C73.52 41.8308 73.55 41.8508 73.7 41.9708C74.21 42.3808 74.31 42.3708 74.96 42.0608C75.47 41.8208 75.75 41.9908 75.96 42.4108C76.53 43.5508 77.1 44.6808 77.65 45.8308C77.79 46.1208 77.89 46.4308 78.02 46.8108C78.08 47.0008 78.35 47.0008 78.41 46.8108C78.6 46.2408 78.76 45.7708 78.92 45.3008C79.44 43.7308 79.91 42.1408 80.48 40.5908C80.77 39.8008 81.02 39.8408 81.58 40.4508C81.93 40.8308 82.56 40.7508 82.78 40.2808C82.84 40.1408 82.88 40.0108 82.87 39.8808C82.84 39.5208 82.56 39.1008 82.26 38.8708" fill="#231104"/>
<path d="M89.49 15.8896C88.98 13.9096 89.69 12.1996 89.84 10.6396C89.66 10.4096 89.49 10.1896 89.31 9.97961C89.4 10.1596 89.44 10.3396 89.41 10.5296C88.57 11.5796 87.74 12.6296 86.9 13.6696C84.07 18.1496 80.51 23.9396 84.39 30.6896C85.1 31.9196 85.89 33.3296 87.02 34.0396C86.44 29.7296 85.62 18.9296 87.7 16.9596C86.77 21.2696 85.75 28.2096 88.02 32.9696C88.07 32.9096 88.12 32.8396 88.17 32.7796C93.5 29.5096 91.14 22.2996 89.48 15.8896H89.49ZM82.57 12.1596C79.26 14.6796 75.75 15.4996 78.13 21.2496C78.16 21.2496 78.19 21.2496 78.22 21.2396C78.22 21.1796 78.21 21.1296 78.2 21.0696C79.06 19.1996 78.95 16.2496 80.74 15.1496C80.74 15.1796 80.74 15.2096 80.75 15.2396C79.88 17.0096 79.09 18.8096 79 21.2496C79.03 21.2496 79.06 21.2496 79.09 21.2396C82.41 18.9896 82.06 16.1996 82.84 12.1496C82.75 12.1596 82.67 12.1696 82.58 12.1796L82.57 12.1596ZM81.74 5.22961C81.5 5.15961 81.27 5.08961 81.03 5.02961C80.02 6.47961 79.17 7.98961 78.61 9.31961C80.19 8.74961 82.3 8.40961 83.52 7.46961C83.96 7.12961 84.33 6.69961 84.67 6.20961C83.71 5.83961 82.73 5.52961 81.75 5.23961L81.74 5.22961ZM77.59 4.09961C77.49 4.38961 77.41 4.69961 77.34 5.02961C77.15 5.88961 76.91 8.47961 77.55 9.25961C77.88 8.30961 79.1 6.60961 80.57 4.89961C79.58 4.61961 78.58 4.36961 77.58 4.09961H77.59ZM99.42 33.2496C98.98 31.6996 98.89 30.0296 98.14 28.7996C97.58 33.5696 93.52 35.2696 92.68 38.8696C92.4 40.0596 93.18 44.3996 93.81 45.0696C94.19 44.3296 94.57 43.5996 94.95 42.8596C96.12 40.4396 97.46 37.9396 98.07 35.1396C98.1 35.1396 98.13 35.1396 98.16 35.1396C98.01 39.2696 94.37 42.5796 94.43 45.9696C94.46 45.9696 94.49 45.9696 94.52 45.9596C98.82 43.7596 101.36 40.0496 99.43 33.2696L99.42 33.2496ZM110.38 45.1196C110.38 45.1196 110.38 45.1196 110.38 45.1096C107.33 46.6796 103.9 49.5096 102.87 52.3796C102.93 52.4296 103 52.4796 103.06 52.5296C106.29 52.8096 108.85 51.8496 110.87 50.3396C110.91 50.0296 110.94 49.7296 110.99 49.4196C110.95 47.9496 110.73 46.5196 110.39 45.1096L110.38 45.1196ZM109.34 41.7696C108.59 41.9796 107.85 42.2296 107.14 42.5296C103.46 44.1096 101.54 47.9196 101.77 52.5896C101.8 52.5896 101.83 52.5896 101.86 52.5796C101.94 52.5096 102.02 52.4496 102.1 52.3796C102.99 49.6196 107.09 46.4496 110.33 44.8796C110.06 43.8296 109.73 42.7996 109.36 41.7696H109.34ZM105.84 58.8096C107.28 58.5996 107.7 57.5296 108.66 56.9296C108.02 58.0696 107.07 58.8296 106.02 59.6496C106.06 59.6996 106.09 59.7596 106.13 59.8096C107.93 59.6396 109.29 58.8996 110.26 57.8196C110.36 56.4596 110.44 55.0896 110.54 53.7296C108.16 54.8196 105.64 55.5096 105.84 58.7996V58.8096ZM100.91 22.2896C99.65 23.3196 97.99 24.1896 97.69 25.6396C97.78 25.6596 97.87 25.6796 97.96 25.6996C99.52 25.1296 100.96 24.9996 102.08 24.1896C101.73 23.5296 101.34 22.8996 100.92 22.2896H100.91ZM100.39 21.5696C99.9 20.9296 99.38 20.3096 98.84 19.7096C97.6 20.8596 97.09 23.0096 97.01 24.9296C98.24 23.9396 99.47 22.9596 100.7 21.9796C100.6 21.8396 100.5 21.6996 100.4 21.5696H100.39ZM105.83 33.3096C105.51 33.8796 105.24 34.4996 105.09 35.2196C105.5 34.9996 105.94 34.8096 106.36 34.6296C106.18 34.1896 105.99 33.7496 105.82 33.3096H105.83ZM104.58 29.7496C103.71 31.2496 103.27 33.1096 104.03 34.9996L104.28 34.8896C104.63 34.2296 105.06 33.3996 105.57 32.6496C105.2 31.6896 104.87 30.7296 104.59 29.7596L104.58 29.7496Z" fill="#231104"/>
<path d="M47.36 0.199453C47.04 0.739453 46.77 1.30945 46.59 1.92945C46.41 2.70945 46.2 3.47945 45.96 4.23945C45.56 5.52945 44.73 6.43945 43.48 6.95945C43.01 7.15945 42.54 7.32945 42.06 7.49945C41.75 7.60945 41.72 7.57945 41.7 7.25945C41.65 6.29945 41.95 5.42945 42.39 4.59945C42.67 4.05945 42.96 3.51945 43.24 2.96945C43.3 2.85945 43.33 2.73945 43.38 2.62945C43.35 2.61945 43.32 2.60945 43.29 2.58945C42.12 4.18945 41.54 6.05945 40.95 7.92945C40.91 7.92945 40.86 7.92945 40.82 7.92945C40.72 7.52945 40.55 7.13945 40.52 6.72945C40.41 5.37945 40.52 4.08945 40.88 2.87945C40.93 2.70945 40.99 2.52945 41.06 2.35945C43.2 1.77945 45.31 1.10945 47.35 0.189453L47.36 0.199453Z" fill="#231104"/>
<path d="M9.76997 71.0904C8.56997 70.7204 7.42997 70.3704 6.27997 70.0204C7.12997 70.8504 8.60997 70.8604 9.06997 72.2304C6.66997 72.9204 4.23997 72.2104 2.29997 70.8804C1.97997 69.8604 1.67997 68.8304 1.40997 67.7804C1.63997 67.7304 1.86997 67.6804 2.10997 67.6304C3.50997 67.3304 4.88997 67.0504 6.32997 67.4804C7.95997 67.9604 9.07997 68.9804 9.71997 70.5404C9.75997 70.6504 9.78997 70.7604 9.81997 70.8704C9.81997 70.9204 9.79997 70.9804 9.77997 71.0904H9.76997Z" fill="#231104"/>
<path d="M18.21 61.2191C19.9 62.3791 21.59 63.5391 23.47 64.8291C22.92 65.0691 22.54 65.3391 22.12 65.3891C19.25 65.7391 16.65 65.1291 14.46 63.1491C11.65 60.5991 10 57.4491 9.60001 53.6691C9.58001 53.4791 9.60001 53.2891 9.60001 53.0391C10.3 53.6491 10.92 54.2291 11.58 54.7491C13.25 56.0891 15.25 56.5491 17.31 56.8391C18.01 56.9391 18.72 57.0591 19.41 57.2291C21.12 57.6391 22.43 58.6091 23.14 60.2291C23.7 61.4791 24.12 62.7891 24.65 64.2191C22.15 63.6691 20.39 62.0091 18.21 61.2291V61.2191Z" fill="#231104"/>
<path d="M18.67 31.0191C15.19 31.5091 12.48 30.2091 10.48 27.3991C9.69002 26.2891 9.11002 25.0891 8.71002 23.8391C8.97002 23.4391 9.24002 23.0391 9.51002 22.6491C10.36 21.9491 11.14 21.1491 11.87 20.2891C12.04 20.3891 12.21 20.4891 12.39 20.5791C13.16 21.0091 13.93 21.4491 14.7 21.8791C16.59 22.9391 17.84 24.5291 18.45 26.5991C18.78 27.7391 19.04 28.9091 19.28 30.0691C19.42 30.7291 19.23 30.9491 18.67 31.0291V31.0191Z" fill="#231104"/>
<path d="M14.41 51.1302C14.36 51.1902 14.32 51.2602 14.27 51.3202C13.75 51.2102 13.23 51.1202 12.72 51.0002C8.09002 49.9102 5.06002 47.0702 3.54002 42.5902C2.91002 40.7302 2.39002 38.8502 2.15002 36.9302C2.40002 36.4902 2.65002 36.0502 2.87002 35.6002C3.31002 34.3502 3.80002 33.1202 4.33002 31.9102C5.60002 33.8702 7.25002 35.4602 9.15002 36.8502C10.6 37.9102 11.89 39.1602 12.79 40.7602C13.65 42.3002 14.03 43.9902 14.2 45.7202C14.32 47.0202 14.34 48.3302 14.31 49.6602C11.88 47.7902 9.83002 45.6102 8.17002 43.0402C8.27002 43.2502 8.36002 43.4702 8.48002 43.6702C9.67002 45.7302 11.18 47.5502 12.78 49.3102C13.33 49.9102 13.87 50.5302 14.41 51.1302Z" fill="#231104"/>
<path d="M0.31001 56.9397C2.06001 58.3197 3.80001 59.6997 5.64001 61.1497C3.75001 61.7797 2.06001 61.6797 0.40001 60.9397C0.31001 60.8997 0.22001 60.8597 0.13001 60.8097C0.0900098 60.4197 0.0400098 60.0297 0.0100098 59.6397C0.16001 58.7397 0.26001 57.8397 0.32001 56.9297L0.31001 56.9397Z" fill="#231104"/>
<path d="M0.309998 56.9009C0.379998 55.7309 0.389998 54.5609 0.369998 53.3809C1.31 53.6409 2.24 53.9909 3.11 54.4209C5.23 55.4709 6.13 57.4009 6.57 59.6009C6.63 59.9009 6.67 60.2009 6.74 60.6709C4.52 59.3409 2.44 58.0909 0.349998 56.8409C0.339998 56.8609 0.329998 56.8709 0.309998 56.8909V56.9009Z" fill="#231104"/>
<path d="M38.14 7.1207C37.7 8.5207 36.8 9.4907 35.36 9.9607C36.09 8.4007 36.81 6.8707 37.52 5.3507C37.48 5.3307 37.44 5.3107 37.4 5.2907C36.77 6.8707 36.06 8.4007 34.86 9.6607C34.25 8.1907 34.47 6.8707 35.47 5.6807C35.86 5.2107 36.3 4.7807 36.69 4.3107C36.97 3.9707 37.24 3.6207 37.54 3.2507C37.68 3.0807 37.82 2.9007 37.97 2.7207C37.99 2.8607 38.03 2.9907 38.07 3.1207C38.11 3.2607 38.15 3.4107 38.17 3.5607C38.38 4.7507 38.51 5.9407 38.14 7.1207Z" fill="#231104"/>
<path d="M31.4 7.26945C31.32 7.47945 31.24 7.67945 31.17 7.88945C30.9 8.81945 30.64 9.74945 30.36 10.6695C30.26 11.0095 30.14 11.3595 30 11.6795C29.61 12.5295 28.97 13.0695 28.01 13.2395C28.25 11.9895 28.51 10.7995 29.36 9.82945C28.5 10.8395 27.72 11.8895 27.56 13.3195C27.49 13.2095 27.44 13.1495 27.42 13.0795C27.18 12.2995 27.03 11.4895 27.16 10.6695C27.29 9.86945 27.74 9.22945 28.41 8.80945C29.36 8.22945 30.36 7.71945 31.34 7.18945C31.36 7.20945 31.39 7.23945 31.41 7.25945L31.4 7.26945Z" fill="#231104"/>
<path d="M24.48 15.7592C24.92 17.0192 25.43 18.2192 26.59 19.0792C26.46 19.0792 26.38 19.0992 26.31 19.0792C25.51 18.8892 24.74 18.6192 24.1 18.0992C23.47 17.5892 23.15 16.8792 23.13 16.0792C23.1 14.9592 23.17 13.8492 23.2 12.7292C23.23 12.7292 23.26 12.7092 23.29 12.6992C23.43 12.8692 23.56 13.0492 23.71 13.2092C24.37 13.9092 25.05 14.6092 25.71 15.3192C25.95 15.5792 26.19 15.8492 26.4 16.1392C26.94 16.8992 27.08 17.7292 26.74 18.6492C25.78 17.8192 24.88 16.9892 24.47 15.7692L24.48 15.7592Z" fill="#231104"/>
<path d="M18.26 18.8693C18.26 18.8693 18.22 18.8993 18.19 18.9093C18.67 19.7693 19.15 20.6293 19.67 21.5693C18.52 21.5593 17.68 21.1593 17.25 20.2393C16.94 19.5593 16.74 18.7993 16.65 18.0593C16.55 17.2393 16.63 16.3993 16.63 15.5293C16.77 15.5793 16.8 15.5793 16.81 15.5993C17.3 16.4693 17.98 17.1493 18.78 17.7393C19.78 18.4693 20.08 19.5193 20 20.8193C19.38 20.1293 18.81 19.5093 18.24 18.8793L18.26 18.8693Z" fill="#231104"/>
<path d="M70.18 1.44C69.83 2.7 69.48 3.95 69.08 5.19C68.37 7.41 66.86 8.94 64.68 9.77C63.51 10.22 62.31 10.61 61.13 11.01C61 11.05 60.85 11.05 60.71 11.07C60.66 11.03 60.62 10.99 60.57 10.95C61.03 10.28 61.4 9.54 61.95 8.96C63.02 7.82 64.18 6.77 65.32 5.7C65.83 5.22 66.37 4.77 66.89 4.31C66.82 4.24 66.75 4.16 66.67 4.09C64.42 6.12 62.17 8.16 59.85 10.25C59.83 9.79 59.74 9.32 59.81 8.86C59.92 8.08 60.1 7.31 60.29 6.55C60.84 4.36 62.13 2.71 64.05 1.57C64.88 1.07 65.74 0.62 66.61 0.19C66.74 0.13 66.86 0.07 66.99 0C67.66 0.22 68.45 0.53 69.43 1.04C69.68 1.18 69.93 1.32 70.18 1.45V1.44Z" fill="#231104"/>
<path d="M51.77 84.6508H67.9C67.9 84.6508 67.05 84.5108 67.29 83.6408C67.29 83.6408 70.46 80.4708 65.98 75.4208C65.98 75.4208 65.72 75.0508 65.2 74.7908L65.1 74.8608C65.1 74.8608 66.99 79.1908 62.92 81.3308L62.96 79.2408L62.08 74.0208C62.08 74.0208 61.18 69.7608 65.44 67.0408C65.44 67.0408 68.04 64.5708 73.09 66.3108C76.38 67.0108 79.54 66.8908 79.54 66.8908C79.54 66.8908 88.51 68.5308 87.53 74.2408L87.6 74.2808L87.83 74.0608C87.83 74.0608 90.49 70.9508 86.56 68.1908C85.26 67.4008 84.57 67.2608 84.03 67.1508C83.81 67.1108 83.59 67.0808 83.37 67.0708C81.99 67.0008 81.09 66.7508 81.09 66.7508L81.11 66.6208C81.11 66.6208 82.07 66.6908 82.8 66.4808C83.53 66.2708 86.61 65.6808 88.66 66.7708C90.71 67.8508 92.99 69.6108 93.55 73.9008H93.66V73.8708L93.79 73.4008C93.79 73.4008 95.91 66.7408 86.92 65.2808C84.4 64.9408 81.96 65.4308 81.96 65.4308C81.96 65.4308 86.25 60.7608 91.91 65.5708L93.02 66.6608L93.12 66.5908C93.12 66.5908 91 59.6008 83.49 62.6408C83.08 62.8108 82.69 63.0308 82.33 63.3008C81.04 64.2708 76.98 66.7908 73.48 63.4308C73.06 63.0208 72.6 62.6508 72.09 62.3708C67.44 59.8208 61.66 62.8608 59.51 64.6308C59.23 64.8608 58.99 65.1108 58.78 65.4008C58.04 66.3808 55.31 69.5308 51.05 68.8508C50.87 68.8208 50.68 68.8008 50.49 68.7808C46.56 68.3808 44.67 65.7808 44.67 65.7808C44.67 65.7808 42.78 63.1608 40.87 62.6508C38.96 62.1408 36.81 62.4208 34.11 64.2908L33.85 64.6008H34.17C34.17 64.6008 37.66 64.0408 38.19 64.1008C38.72 64.1608 40.38 63.7908 43.82 66.8508L43.89 66.9808C43.89 66.9808 39.01 66.4308 38.56 66.5908C37.45 66.6708 35.56 66.5108 34.24 66.2208C32.92 65.9308 31.29 66.9108 30.76 67.3908C30.23 67.8708 28.54 68.7508 28.54 68.7508L28.74 68.8208C28.74 68.8208 30.45 68.4708 31.03 68.2008C31.61 67.9308 33.28 66.5908 38.04 68.1708C38.04 68.1708 33.18 73.8308 26.56 70.5508C26.42 70.4808 26.27 70.4408 26.12 70.4408C25.6 70.4308 24.82 70.6108 24.82 70.6108L24.18 70.6408C24.18 70.6408 20.87 71.3908 19.89 73.6508L19.97 73.7308C19.97 73.7308 24.39 71.1208 28.44 72.9508C28.44 72.9508 23.62 75.1008 24.96 79.6008H25.08L25.26 79.1308C25.26 79.1308 25.36 78.8908 25.37 78.7208C25.37 78.5708 26.41 75.8708 29.88 74.0708C30.38 73.8108 30.93 73.6508 31.49 73.5908C32.44 73.4908 34.13 73.2208 35.22 72.5508C36.99 71.7708 41.17 69.3008 44.11 70.0808C47.05 70.8708 50.81 71.6908 54.01 74.4108C57.2 77.1308 57.84 83.3908 51.77 84.6708V84.6508Z" fill="#231104"/>
</g>
<defs>
<clipPath id="clip0_119_411">
<rect width="110.98" height="102.69" fill="white"/>
</clipPath>
</defs>
</svg>
